<svg xmlns="http://www.w3.org/2000/svg" xmlns:xlink="http://www.w3.org/1999/xlink" width="610" height="602" version="1.1" viewBox="0 0 610 602" style="background:#fff"><title>object-model</title><desc>Created with Sketch.</desc><defs><rect id="path-1" width="557" height="222" x="0" y="0"/><mask id="mask-2" width="557" height="222" x="0" y="0" fill="#fff" maskContentUnits="userSpaceOnUse" maskUnits="objectBoundingBox"><use xlink:href="#path-1"/></mask><rect id="path-3" width="103" height="25" x="0" y="0" rx="3"/><mask id="mask-4" width="103" height="25" x="0" y="0" fill="#fff" maskContentUnits="userSpaceOnUse" maskUnits="objectBoundingBox"><use xlink:href="#path-3"/></mask><rect id="path-5" width="103" height="25" x="0" y="0" rx="3"/><mask id="mask-6" width="103" height="25" x="0" y="0" fill="#fff" maskContentUnits="userSpaceOnUse" maskUnits="objectBoundingBox"><use xlink:href="#path-5"/></mask><rect id="path-7" width="103" height="25" x="0" y="0" rx="3"/><mask id="mask-8" width="103" height="25" x="0" y="0" fill="#fff" maskContentUnits="userSpaceOnUse" maskUnits="objectBoundingBox"><use xlink:href="#path-7"/></mask><rect id="path-9" width="103" height="25" x="0" y="0" rx="3"/><mask id="mask-10" width="103" height="25" x="0" y="0" fill="#fff" maskContentUnits="userSpaceOnUse" maskUnits="objectBoundingBox"><use xlink:href="#path-9"/></mask><rect id="path-11" width="103" height="25" x="0" y="0" rx="3"/><mask id="mask-12" width="103" height="25" x="0" y="0" fill="#fff" maskContentUnits="userSpaceOnUse" maskUnits="objectBoundingBox"><use xlink:href="#path-11"/></mask><rect id="path-13" width="103" height="26" x="0" y="0" rx="3"/><mask id="mask-14" width="103" height="26" x="0" y="0" fill="#fff" maskContentUnits="userSpaceOnUse" maskUnits="objectBoundingBox"><use xlink:href="#path-13"/></mask><rect id="path-15" width="103" height="26" x="0" y="0" rx="3"/><mask id="mask-16" width="103" height="26" x="0" y="0" fill="#fff" maskContentUnits="userSpaceOnUse" maskUnits="objectBoundingBox"><use xlink:href="#path-15"/></mask></defs><g id="object-model" fill="none" fill-rule="evenodd" stroke="none" stroke-width="1"><g id="objects" transform="translate(25.000000, 19.000000)"><use id="Rectangle" stroke="#444" stroke-dasharray="3 3" stroke-width="2" mask="url(#mask-2)" xlink:href="#path-1"/><g id="rod.Browser" transform="translate(24.000000, 24.000000)"><g id="base"><rect id="Rectangle" width="128" height="174" x=".5" y=".5" fill="#DDEDFF" stroke="#007AFF" rx="8"/><text id="rod.Browser" fill="#18395F" font-family="Menlo-Regular, Menlo" font-size="15" font-weight="normal"><tspan x="15.331" y="31">rod.Browser</tspan></text></g><g id="window" transform="translate(13.000000, 53.000000)"><use id="Rectangle" fill="#CCE4FF" stroke="#7179A1" stroke-dasharray="3 3" stroke-width="2" mask="url(#mask-4)" xlink:href="#path-3"/><text fill="#18395F" font-family="ArialMT, Arial" font-size="12" font-weight="normal"><tspan x="31.49" y="16">window</tspan></text></g><g id="incognito-window" transform="translate(13.000000, 92.000000)"><use id="Rectangle" fill="#CCE4FF" stroke="#7179A1" stroke-dasharray="3 3" stroke-width="2" mask="url(#mask-6)" xlink:href="#path-5"/><text fill="#18395F" font-family="ArialMT, Arial" font-size="12" font-weight="normal"><tspan x="5.806" y="16">incognito window</tspan></text></g></g><g id="rod.Page" transform="translate(213.000000, 24.000000)"><g id="base"><rect id="Rectangle" width="128" height="174" x=".5" y=".5" fill="#DDEDFF" stroke="#007AFF" rx="8"/><rect id="Rectangle" width="128" height="174" x=".5" y=".5" fill="#DDEDFF" stroke="#007AFF" rx="8"/><text id="rod.Page" fill="#18395F" font-family="Menlo-Regular, Menlo" font-size="15" font-weight="normal"><tspan x="28.377" y="30">rod.Page</tspan></text></g><g id="tab" transform="translate(13.000000, 53.000000)"><use id="Rectangle" fill="#CCE4FF" stroke="#7179A1" stroke-dasharray="3 3" stroke-width="2" mask="url(#mask-8)" xlink:href="#path-7"/><text fill="#18395F" font-family="ArialMT, Arial" font-size="12" font-weight="normal"><tspan x="43.159" y="16">tab</tspan></text></g><g id="iframe" transform="translate(13.000000, 92.000000)"><use id="Rectangle" fill="#CCE4FF" stroke="#7179A1" stroke-dasharray="3 3" stroke-width="2" mask="url(#mask-10)" xlink:href="#path-9"/><text fill="#18395F" font-family="ArialMT, Arial" font-size="12" font-weight="normal"><tspan x="35.33" y="16">iframe</tspan></text></g><g id="web-worker" transform="translate(13.000000, 131.000000)"><use id="Rectangle" fill="#CCE4FF" stroke="#7179A1" stroke-dasharray="3 3" stroke-width="2" mask="url(#mask-12)" xlink:href="#path-11"/><text fill="#18395F" font-family="ArialMT, Arial" font-size="12" font-weight="normal"><tspan x="21.323" y="16">web worker</tspan></text></g></g><g id="rod.Element" transform="translate(402.000000, 24.000000)"><g id="base"><rect id="Rectangle" width="128" height="174" x=".5" y=".5" fill="#DDEDFF" stroke="#007AFF" rx="8"/><rect id="Rectangle" width="128" height="174" x=".5" y=".5" fill="#DDEDFF" stroke="#007AFF" rx="8"/><text id="rod.Element" fill="#18395F" font-family="Menlo-Regular, Menlo" font-size="15" font-weight="normal"><tspan x="15.331" y="32">rod.Element</tspan></text></g><g id="dom-element" transform="translate(15.000000, 52.000000)"><use id="Rectangle" fill="#CCE4FF" stroke="#7179A1" stroke-dasharray="3 3" stroke-width="2" mask="url(#mask-14)" xlink:href="#path-13"/><text id="DOM-element" fill="#18395F" font-family="ArialMT, Arial" font-size="12" font-weight="normal"><tspan x="14.489" y="16">DOM element</tspan></text></g><g id="shadow-dom" transform="translate(15.000000, 91.000000)"><use id="Rectangle" fill="#CCE4FF" stroke="#7179A1" stroke-dasharray="3 3" stroke-width="2" mask="url(#mask-16)" xlink:href="#path-15"/><text id="shadow-DOM" fill="#18395F" font-family="ArialMT, Arial" font-size="12" font-weight="normal"><tspan x="15.154" y="16">shadow DOM</tspan></text></g></g></g><g id="proto.*" transform="translate(238.000000, 304.000000)"><rect id="Rectangle" width="128" height="55" x=".5" y=".5" fill="#F3DDFF" stroke="#007AFF" rx="8"/><text fill="#18395F" font-family="Menlo-Regular, Menlo" font-size="15" font-weight="normal"><tspan x="33.392" y="32">proto.*</tspan></text></g><g id="Browser" transform="translate(238.000000, 521.000000)"><rect id="Rectangle" width="128" height="55" x=".5" y=".5" fill="#FFF8DD" stroke="#007AFF" rx="27.5"/><text fill="#18395F" font-family="Menlo-Regular, Menlo" font-size="15" font-weight="normal"><tspan x="33.392" y="32">Browser</tspan></text></g><g id="launcher.Launcher" transform="translate(25.000000, 522.000000)"><rect id="Rectangle" width="128" height="55" x=".5" y=".5" fill="#F3FFE1" stroke="#007AFF" rx="8"/><text fill="#18395F" font-family="Menlo-Regular, Menlo" font-size="11" font-weight="normal"><tspan x="8.708" y="32">launcher.Launcher</tspan></text></g><g id="rdp.Client" transform="translate(238.000000, 400.000000)"><rect id="Rectangle" width="128" height="55" x=".5" y=".5" fill="#DDFEFF" stroke="#007AFF" rx="8"/><text id="cdp.Client" fill="#18395F" font-family="Menlo-Regular, Menlo" font-size="15" font-weight="normal"><tspan x="19.346" y="32">cdp.Client</tspan></text></g><path id="Line-6" fill="#979797" fill-rule="nonzero" d="M229.5,549.5 L154,549.5 L153.5,549.5 L153.5,548.5 L154,548.5 L229.5,548.5 L229.5,544.5 L238.5,549 L229.5,553.5 L229.5,549.5 Z"/><path id="Line-4" fill="#979797" fill-rule="nonzero" d="M302.5,391.5 L302.5,360 L302.5,359.5 L303.5,359.5 L303.5,360 L303.5,391.5 L307.5,391.5 L303,400.5 L298.5,391.5 L302.5,391.5 Z"/><path id="Line-5" fill="#979797" fill-rule="nonzero" d="M302.434632,512.504098 L302.000015,456.003846 L301.996169,455.503861 L302.996139,455.496169 L302.999985,455.996154 L303.434603,512.496405 L307.434484,512.465637 L303.003846,521.499985 L298.43475,512.534866 L302.434632,512.504098 Z"/><path id="Line" fill="#979797" fill-rule="nonzero" d="M303,295.5 L303,241 L303,240.5 L304,240.5 L304,241 L304,295.5 L308,295.5 L303.5,304.5 L299,295.5 L303,295.5 Z"/><text id="use-proto-lib-to-tal" fill="#18395F" font-family="ArialMT, Arial" font-size="15" font-weight="normal"><tspan x="313" y="276">use proto lib to talk with cdp.Client</tspan></text><text id="use-websocket-to-tal" fill="#18395F" font-family="ArialMT, Arial" font-size="15" font-weight="normal"><tspan x="313" y="495">use websocket to talk with browser</tspan></text><text id="launch" fill="#18395F" font-family="ArialMT, Arial" font-size="15" font-weight="normal"><tspan x="174" y="540">launch</tspan></text></g></svg>